<svg width="60" height="52" viewBox="0 0 60 52" fill="none" xmlns="http://www.w3.org/2000/svg">
<path fill-rule="evenodd" clip-rule="evenodd" d="M33.3125 52C47.6719 52 59.3125 40.3594 59.3125 26C59.3125 11.6406 47.6719 0 33.3125 0C18.9531 0 7.3125 11.6406 7.3125 26C7.3125 40.3594 18.9531 52 33.3125 52ZM25.5938 17.0626C24.0232 17.0626 22.75 18.3358 22.75 19.9064V23.9689C22.75 25.5395 24.0232 26.8126 25.5938 26.8126C27.1643 26.8126 28.4375 25.5395 28.4375 23.9689V19.9064C28.4375 18.3358 27.1643 17.0626 25.5938 17.0626ZM38.1875 19.9062C38.1875 18.3357 39.4607 17.0625 41.0312 17.0625C42.6018 17.0625 43.875 18.3357 43.875 19.9062V23.9688C43.875 25.5393 42.6018 26.8125 41.0312 26.8125C39.4607 26.8125 38.1875 25.5393 38.1875 23.9688V19.9062ZM43.8277 33.4985C43.8799 32.9487 43.4273 32.5 42.875 32.5H33.3125H23.75C23.1977 32.5 22.7451 32.9487 22.7973 33.4985C22.8965 34.5432 23.151 35.5692 23.554 36.5421C24.0848 37.8236 24.8629 38.988 25.8437 39.9688C26.8245 40.9496 27.9889 41.7277 29.2704 42.2585C30.5519 42.7893 31.9254 43.0625 33.3125 43.0625C34.6996 43.0625 36.0731 42.7893 37.3546 42.2585C38.6361 41.7277 39.8005 40.9496 40.7813 39.9688C41.7621 38.988 42.5402 37.8236 43.071 36.5421C43.474 35.5692 43.7285 34.5432 43.8277 33.4985Z" fill="#ffffff"/>
<path d="M18.524 4.06688C29.4774 -2.69329 48.05 -1.26669 50.375 10.1625C45.8111 13.2609 22.3438 12.5938 18.524 19.6868C14.8671 26.4775 0 13.9723 0 8.59593C3.875 8.59593 7.57069 10.8271 18.524 4.06688Z" fill="#ffffff"/>
</svg>
